<?xml version="1.0" encoding="UTF-8"?>
<svg version="1.1" xmlns="http://www.w3.org/2000/svg" width="420" height="594">
<path d="M0 0 C17.91012067 15.41103406 29.62624425 36.52419986 31.65039062 60.24658203 C32.93250661 82.42811768 26.51305583 105.51387595 11.76953125 122.54296875 C10.67839315 123.70121557 9.57536757 124.84846083 8.45703125 125.98046875 C7.74353516 126.75003906 7.74353516 126.75003906 7.015625 127.53515625 C4.83871807 129.83552954 3.51696595 130.96049052 0.45703125 131.98046875 C0.12703125 132.97046875 -0.20296875 133.96046875 -0.54296875 134.98046875 C-19.25480255 151.18170012 -42.79610187 154.17525436 -66.54296875 152.98046875 C-74.47636163 152.13099462 -82.06918984 149.68649215 -89.54296875 146.98046875 C-89.54296875 146.32046875 -89.54296875 145.66046875 -89.54296875 144.98046875 C-90.20296875 144.89796875 -90.86296875 144.81546875 -91.54296875 144.73046875 C-98.61262643 142.96305433 -105.22037684 138.93500909 -110.54296875 133.98046875 C-110.54296875 133.32046875 -110.54296875 132.66046875 -110.54296875 131.98046875 C-111.37828125 131.64015625 -111.37828125 131.64015625 -112.23046875 131.29296875 C-115.22949085 129.59082107 -117.1879612 127.50369113 -119.54296875 124.98046875 C-119.99542969 124.5215625 -120.44789063 124.06265625 -120.9140625 123.58984375 C-136.13318586 107.25712599 -142.50821649 83.84865565 -141.89453125 62.0234375 C-140.88817091 43.09445104 -133.11134413 25.59100018 -121.04296875 11.16796875 C-120.59228027 10.62857666 -120.1415918 10.08918457 -119.67724609 9.53344727 C-116.57717441 5.93049495 -113.33203972 2.85952408 -109.54296875 -0.01953125 C-108.88296875 -0.01953125 -108.22296875 -0.01953125 -107.54296875 -0.01953125 C-107.54296875 -0.67953125 -107.54296875 -1.33953125 -107.54296875 -2.01953125 C-75.24727116 -25.8389494 -31.31812378 -24.8716897 0 0 Z M-64.54296875 -2.01953125 C-65.96212215 0.4193731 -67.18370903 2.74396327 -68.35546875 5.29296875 C-69.04760221 6.73787975 -69.74165952 8.18187057 -70.4375 9.625 C-70.78635254 10.35412598 -71.13520508 11.08325195 -71.49462891 11.83447266 C-73.0889719 15.09816034 -74.8113849 18.28808722 -76.54296875 21.48046875 C-81.26046659 30.23475553 -85.6609967 39.14243796 -90.0625 48.05859375 C-92.55452216 53.08382852 -95.11190545 58.06364646 -97.76074219 63.00756836 C-101.63770834 70.24538978 -105.28232605 77.54238812 -108.71850586 84.99975586 C-111.05247379 90.03552932 -113.61200295 94.88878885 -116.4140625 99.68359375 C-117.98930278 102.8885809 -118.97687491 105.63930426 -117.85546875 109.10546875 C-116.184257 111.49291411 -115.17030656 112.63311603 -112.54296875 113.98046875 C-109.46396621 114.45110818 -106.59125935 114.66204077 -103.54296875 113.98046875 C-99.37517825 110.83020523 -97.36444913 106.28627496 -95.04296875 101.73046875 C-94.66527344 101.00472656 -94.28757812 100.27898437 -93.8984375 99.53125 C-92.76867165 97.35324779 -91.65509534 95.16752051 -90.54296875 92.98046875 C-90.15625 92.23474609 -89.76953125 91.48902344 -89.37109375 90.72070312 C-87.29158891 87.04171661 -87.29158891 87.04171661 -86.54296875 82.98046875 C-66.08296875 82.98046875 -45.62296875 82.98046875 -24.54296875 82.98046875 C-23.55296875 86.44546875 -23.55296875 86.44546875 -22.54296875 89.98046875 C-21.66751663 91.80325762 -20.73059439 93.59799204 -19.73046875 95.35546875 C-19.20066406 96.29261719 -18.67085938 97.22976563 -18.125 98.1953125 C-17.60292969 99.11441406 -17.08085937 100.03351563 -16.54296875 100.98046875 C-16.09308594 101.82738281 -15.64320313 102.67429687 -15.1796875 103.546875 C-12.21798154 109.50136854 -12.21798154 109.50136854 -7.54296875 113.98046875 C-3.02397215 114.78895213 0.38797244 114.50408939 4.51953125 112.48046875 C6.69393098 109.67479168 7.24188413 107.76196167 6.99609375 104.2109375 C6.15309893 100.7228937 4.30459617 98.10426529 2.35546875 95.12109375 C-0.02594693 91.18146782 -1.92772941 87.09383228 -3.85546875 82.91796875 C-7.25383741 75.59230529 -10.86315356 68.42321413 -14.7121582 61.32397461 C-16.20394655 58.56381234 -17.54839643 55.96418571 -18.54296875 52.98046875 C-19.20296875 52.98046875 -19.86296875 52.98046875 -20.54296875 52.98046875 C-20.62546875 52.31273437 -20.70796875 51.645 -20.79296875 50.95703125 C-21.77056985 47.07717689 -23.61578607 43.82665394 -25.54296875 40.35546875 C-30.58828731 31.07055963 -35.09389924 21.56227094 -39.54296875 11.98046875 C-40.20296875 11.98046875 -40.86296875 11.98046875 -41.54296875 11.98046875 C-41.70345703 10.91892578 -41.70345703 10.91892578 -41.8671875 9.8359375 C-42.62117882 6.64999732 -43.80373203 4.17252068 -45.35546875 1.29296875 C-45.85691406 0.34035156 -46.35835938 -0.61226562 -46.875 -1.59375 C-48.64351723 -4.16576218 -49.63049761 -5.02048592 -52.54296875 -6.01953125 C-58.1686839 -6.63324563 -60.5048513 -5.92597096 -64.54296875 -2.01953125 Z M-64.54296875 108.98046875 C-66.61860785 111.96419995 -67.54296875 113.84072244 -67.54296875 117.48046875 C-66.15042956 120.96181672 -64.5609284 123.74362807 -61.54296875 125.98046875 C-57.05502971 127.28445104 -53.01638466 127.28901898 -48.54296875 125.98046875 C-48.54296875 125.32046875 -48.54296875 124.66046875 -48.54296875 123.98046875 C-47.55296875 123.65046875 -46.56296875 123.32046875 -45.54296875 122.98046875 C-43.8045583 119.50364784 -44.09654502 115.7816355 -44.54296875 111.98046875 C-45.77750584 108.83302356 -45.77750584 108.83302356 -48.54296875 106.98046875 C-54.51096628 105.13707183 -59.28183408 105.71856525 -64.54296875 108.98046875 Z " fill="#9484B9" transform="translate(268.54296875,241.01953125)"/>
<path d="M0 0 C0 0.66 0 1.32 0 2 C1.175625 2.4640625 1.175625 2.4640625 2.375 2.9375 C5 4 5 4 7 5 C7 5.66 7 6.32 7 7 C7.99 7 8.98 7 10 7 C11.17036232 8.06709505 12.32703606 9.15304607 13.41015625 10.30859375 C15.4050381 12.43091276 17.48598427 14.45758141 19.5625 16.5 C28 24.9515625 28 24.9515625 28 28 C28.66 28 29.32 28 30 28 C36.88371181 37.84654653 43.59946244 50.50091242 46 62.375 C46.54472882 65.05000762 47.1816021 67.57185342 48.00976562 70.1796875 C49.7451463 76.87476561 49.4845427 83.74713121 49.5 90.625 C49.50334351 91.40501373 49.50668701 92.18502747 49.51013184 92.98867798 C49.51413592 108.57476719 47.12215876 122.27310618 39.89624023 136.2175293 C38.90702186 138.11637054 38.90702186 138.11637054 37.95703125 140.6640625 C35.99057642 145.46381756 32.85335739 149.68921652 30 154 C29.505 154.74894531 29.01 155.49789062 28.5 156.26953125 C27.3922544 157.88829044 26.20424442 159.45168575 25 161 C24.34 161 23.68 161 23 161 C22.74992188 161.57621094 22.49984375 162.15242187 22.2421875 162.74609375 C20.83134724 165.3060146 19.21090765 167.01988477 17.125 169.0625 C16.10792969 170.06990234 16.10792969 170.06990234 15.0703125 171.09765625 C9.73511294 176 9.73511294 176 7 176 C7 176.66 7 177.32 7 178 C5.43093162 178.89151613 3.86111788 179.78173036 2.2890625 180.66796875 C0.65966288 181.61613474 -0.94789051 182.60227504 -2.5390625 183.61328125 C-24.80023803 197.44219332 -52.58453203 201.59053385 -78.25 196.75 C-80.50895635 196.20237422 -82.76006619 195.62086576 -85 195 C-86.63388672 194.58234375 -86.63388672 194.58234375 -88.30078125 194.15625 C-101.09395372 190.60173981 -113.58791029 184.2953462 -124 176 C-124 175.34 -124 174.68 -124 174 C-124.598125 173.71125 -125.19625 173.4225 -125.8125 173.125 C-128 172 -128 172 -131 170 C-131 169.34 -131 168.68 -131 168 C-131.99 167.67 -132.98 167.34 -134 167 C-136.04296875 164.78515625 -136.04296875 164.78515625 -138.1875 162.0625 C-139.26064453 160.71865234 -139.26064453 160.71865234 -140.35546875 159.34765625 C-142 157 -142 157 -142 155 C-142.99 154.67 -143.98 154.34 -145 154 C-145 153.01 -145 152.02 -145 151 C-145.66 151 -146.32 151 -147 151 C-162.8008486 122.82181999 -169.04194372 93.09800067 -160.2734375 61.37109375 C-159.58926632 59.20956394 -158.82754875 57.11044728 -158 55 C-157.67902344 54.15824219 -157.35804688 53.31648438 -157.02734375 52.44921875 C-152.13229257 39.88587446 -145.31067906 27.86717942 -136 18 C-135.34 18 -134.68 18 -134 18 C-133.67 17.01 -133.34 16.02 -133 15 C-132.34 15 -131.68 15 -131 15 C-131 14.34 -131 13.68 -131 13 C-130.34 13 -129.68 13 -129 13 C-129 12.34 -129 11.68 -129 11 C-127.30189246 9.62101957 -125.53964541 8.32040522 -123.75 7.0625 C-122.77546875 6.37285156 -121.8009375 5.68320313 -120.796875 4.97265625 C-119.87390625 4.32167969 -118.9509375 3.67070312 -118 3 C-117.28328125 2.42121094 -116.5665625 1.84242188 -115.828125 1.24609375 C-114 0 -114 0 -111 0 C-111 -0.66 -111 -1.32 -111 -2 C-75.15814773 -21.81843596 -35.4072569 -18.03765917 0 0 Z M-117 18 C-117 18.66 -117 19.32 -117 20 C-117.57492188 20.25394531 -118.14984375 20.50789063 -118.7421875 20.76953125 C-131.72475168 27.84480411 -140.07361994 44.76383924 -145 58 C-145.50273437 59.05445313 -146.00546875 60.10890625 -146.5234375 61.1953125 C-148.49449291 65.7577681 -149.04742998 70.47828944 -149.6875 75.375 C-149.81705078 76.26960938 -149.94660156 77.16421875 -150.08007812 78.0859375 C-153.35062047 101.89687015 -147.71684884 124.37012359 -134 144 C-133.29875 145.11375 -132.5975 146.2275 -131.875 147.375 C-124.22485356 158.08520502 -112.53674693 166.89883576 -101 173 C-99.8553125 173.63808594 -99.8553125 173.63808594 -98.6875 174.2890625 C-77.31931581 185.74634547 -52.48738394 186.59956756 -29.57421875 180.015625 C-24.25469225 178.29323784 -19.08925069 176.31329577 -14 174 C-14 173.34 -14 172.68 -14 172 C-13.12214844 171.74734375 -12.24429688 171.4946875 -11.33984375 171.234375 C-5.84607062 169.20392785 -1.60174042 165.55435457 3 162 C3.62003906 161.54882812 4.24007812 161.09765625 4.87890625 160.6328125 C9.19428192 157.28449692 12.48860845 153.12320429 15.875 148.875 C16.60879883 147.95920166 16.60879883 147.95920166 17.35742188 147.02490234 C19.66978364 144.04802195 21.26275123 141.69226222 22 138 C22.66 138 23.32 138 24 138 C25.10931771 135.52303031 26.21249296 133.0436024 27.3125 130.5625 C27.62123047 129.87478516 27.92996094 129.18707031 28.24804688 128.47851562 C31.89392102 120.22732678 34.43898428 112.18700361 35.75 103.25 C35.87850342 102.37529053 36.00700684 101.50058105 36.1394043 100.59936523 C37.08733441 93.5563937 37.04124996 87.04213792 36 80 C35.87367188 78.91332031 35.74734375 77.82664062 35.6171875 76.70703125 C33.65152846 61.46423887 26.79071197 48.08839611 19 35 C18.34 35 17.68 35 17 35 C16.71125 34.401875 16.4225 33.80375 16.125 33.1875 C14.95257974 30.80672208 14.95257974 30.80672208 13 28 C12.34 28 11.68 28 11 28 C10.67 27.01 10.34 26.02 10 25 C9.34 25 8.68 25 8 25 C7.77183594 24.42507812 7.54367187 23.85015625 7.30859375 23.2578125 C5.65199717 20.39956527 3.67132056 18.89003615 1.0625 16.875 C0.18722656 16.19179687 -0.68804687 15.50859375 -1.58984375 14.8046875 C-5.37468856 11.77272258 -5.37468856 11.77272258 -10 11 C-10 10.34 -10 9.68 -10 9 C-44.16346697 -9.89038762 -86.43809568 -6.74058921 -117 18 Z " fill="#9889BB" transform="translate(272,218)"/>
<path d="M0 0 C0.66 0 1.32 0 2 0 C7.2045927 9.70292543 12.31285017 19.43983635 17.0625 29.375 C17.44398193 30.16430908 17.82546387 30.95361816 18.21850586 31.7668457 C18.57050049 32.511521 18.92249512 33.25619629 19.28515625 34.0234375 C19.74740601 34.99676025 19.74740601 34.99676025 20.21899414 35.98974609 C21 38 21 38 22 43 C8.14 43 -5.72 43 -20 43 C-18.27146443 34.35732214 -14.01494957 26.99315562 -9.81811523 19.31689453 C-8.36211299 16.63919733 -7.00349318 14.00884288 -5.8828125 11.171875 C-5 9 -5 9 -3 7 C-1.96157435 4.68351201 -0.9578025 2.35096976 0 0 Z " fill="#9889BB" transform="translate(212,265)"/>
<path d="M0 0 C0.33 0 0.66 0 1 0 C1.29240794 3.09194322 1.2622862 4.59815511 -0.4609375 7.23828125 C-1.09257812 7.92277344 -1.72421875 8.60726563 -2.375 9.3125 C-3.00148438 10.00988281 -3.62796875 10.70726562 -4.2734375 11.42578125 C-6 13 -6 13 -8 13 C-8.226875 13.639375 -8.45375 14.27875 -8.6875 14.9375 C-10 17 -10 17 -12.625 17.75 C-13.40875 17.8325 -14.1925 17.915 -15 18 C-13.71937515 16.2925002 -12.38232443 14.62626404 -11 13 C-10.34 13 -9.68 13 -9 13 C-8.61521484 12.15695312 -8.61521484 12.15695312 -8.22265625 11.296875 C-6.85074338 8.71960738 -5.23635416 6.54832724 -3.4375 4.25 C-2.81746094 3.45078125 -2.19742187 2.6515625 -1.55859375 1.828125 C-0.78708984 0.92320312 -0.78708984 0.92320312 0 0 Z " fill="#A89DC2" transform="translate(291,361)"/>
<path d="M0 0 C1.32 0.99 2.64 1.98 4 3 C3.67 4.32 3.34 5.64 3 7 C3 6.01 3 5.02 3 4 C2.34 4 1.68 4 1 4 C0.67 6.31 0.34 8.62 0 11 C-1.32 11.33 -2.64 11.66 -4 12 C-4 11.01 -4 10.02 -4 9 C-4.99 8.34 -5.98 7.68 -7 7 C-7 6.34 -7 5.68 -7 5 C-6.34 5 -5.68 5 -5 5 C-5 4.34 -5 3.68 -5 3 C-4.360625 2.87625 -3.72125 2.7525 -3.0625 2.625 C-2.0415625 2.315625 -2.0415625 2.315625 -1 2 C-0.67 1.34 -0.34 0.68 0 0 Z " fill="#9181B5" transform="translate(306,258)"/>
<path d="M0 0 C0.7425 0.37125 1.485 0.7425 2.25 1.125 C4.94283647 2.29515863 4.94283647 2.29515863 7.3125 1.125 C7.869375 0.75375 8.42625 0.3825 9 0 C10.42944945 2.35438733 11.08661261 3.48032433 10.625 6.25 C10.41875 6.8275 10.2125 7.405 10 8 C8.68 8 7.36 8 6 8 C5.34 7.34 4.68 6.68 4 6 C3.01 6.33 2.02 6.66 1 7 C1 6.01 1 5.02 1 4 C0.01 4.33 -0.98 4.66 -2 5 C-2 4.34 -2 3.68 -2 3 C-1.34 3 -0.68 3 0 3 C0 2.01 0 1.02 0 0 Z " fill="#9080B4" transform="translate(141,232)"/>
<path d="M0 0 C0.66 0.33 1.32 0.66 2 1 C1.67 1.66 1.34 2.32 1 3 C1.66 3 2.32 3 3 3 C2.65120368 6.25543229 1.97866739 7.01873107 -0.5625 9.25 C-1.366875 9.8275 -2.17125 10.405 -3 11 C-5 10 -5 10 -5.80859375 8.140625 C-6 6 -6 6 -4.78515625 4.296875 C-4.21667969 3.78640625 -3.64820313 3.2759375 -3.0625 2.75 C-2.21365234 1.96882812 -2.21365234 1.96882812 -1.34765625 1.171875 C-0.90292969 0.78515625 -0.45820313 0.3984375 0 0 Z " fill="#A193C2" transform="translate(155,244)"/>
<path d="M0 0 C1.32 0.33 2.64 0.66 4 1 C3.34 3.64 2.68 6.28 2 9 C1.34 9 0.68 9 0 9 C0 10.98 0 12.96 0 15 C-0.66 15 -1.32 15 -2 15 C-3.98 11.535 -3.98 11.535 -6 8 C-4.68 7.67 -3.36 7.34 -2 7 C-1.34 4.69 -0.68 2.38 0 0 Z " fill="#9E91C1" transform="translate(147,347)"/>
<path d="M0 0 C1.3805087 3.76668598 0.59568159 6.44789173 -0.4375 10.25 C-0.72496094 11.32765625 -1.01242187 12.4053125 -1.30859375 13.515625 C-1.53675781 14.33546875 -1.76492188 15.1553125 -2 16 C-4 14 -4 14 -4.3125 11.3125 C-3.93987352 7.36265934 -2.91711811 2.91711811 0 0 Z " fill="#A79EBE" transform="translate(298,319)"/>
<path d="M0 0 C0.66 0.33 1.32 0.66 2 1 C0.49674976 5.67677851 -2.8970728 6.80200328 -7 9 C-7.66 9.66 -8.32 10.32 -9 11 C-9.66 10.34 -10.32 9.68 -11 9 C-10.34 9 -9.68 9 -9 9 C-9 8.34 -9 7.68 -9 7 C-7.03125 5.2734375 -7.03125 5.2734375 -4.5 3.375 C-3.6646875 2.74335938 -2.829375 2.11171875 -1.96875 1.4609375 C-0.99421875 0.73777344 -0.99421875 0.73777344 0 0 Z " fill="#AA9EC2" transform="translate(152,222)"/>
<path d="M0 0 C1.75763672 0.46986328 1.75763672 0.46986328 3.55078125 0.94921875 C4.73027344 1.25472656 5.90976563 1.56023437 7.125 1.875 C8.02863281 2.12636719 8.93226563 2.37773437 9.86328125 2.63671875 C6.21898329 5.02497227 3.79393765 4.57967326 -0.38671875 3.76171875 C-2.00320312 3.45621094 -2.00320312 3.45621094 -3.65234375 3.14453125 C-4.4721875 2.97695312 -5.29203125 2.809375 -6.13671875 2.63671875 C-4.1803115 -0.22373229 -3.52895755 -0.40870866 0 0 Z " fill="#AA9AC0" transform="translate(231.13671875,213.36328125)"/>
<path d="M0 0 C0.66 0.33 1.32 0.66 2 1 C1.773125 1.70125 1.54625 2.4025 1.3125 3.125 C0.90467361 6.87700275 2.13622707 8.79431057 4 12 C2.35 12.33 0.7 12.66 -1 13 C-1.33 9.37 -1.66 5.74 -2 2 C-1.34 2 -0.68 2 0 2 C0 1.34 0 0.68 0 0 Z " fill="#ACA0C3" transform="translate(201,353)"/>
<path d="M0 0 C2.94721162 2.74395564 5.19168608 5.38337216 7 9 C6.67 9.66 6.34 10.32 6 11 C1.77202073 8.00518135 1.77202073 8.00518135 0 6 C-0.375 2.6875 -0.375 2.6875 0 0 Z " fill="#ADA3C3" transform="translate(282,256)"/>
<path d="M0 0 C4.05281712 1.22527029 7.44360764 2.69880494 11 5 C10.67 5.99 10.34 6.98 10 8 C9.34 8 8.68 8 8 8 C8 7.34 8 6.68 8 6 C7.01 6 6.02 6 5 6 C3.97980427 5.0206121 2.97850195 4.02104551 2 3 C1.34 3 0.68 3 0 3 C0 2.01 0 1.02 0 0 Z " fill="#AA9FC4" transform="translate(247,229)"/>
<path d="M0 0 C2.92879371 0.62759865 5.36095629 1.58622659 8 3 C8 3.66 8 4.32 8 5 C9.32 5.66 10.64 6.32 12 7 C8.87438528 8.04187157 7.95319818 8.23843794 5 7 C3.75 4.9375 3.75 4.9375 3 3 C2.01 3.495 2.01 3.495 1 4 C0.67 2.68 0.34 1.36 0 0 Z " fill="#B2A7C8" transform="translate(264,215)"/>
<path d="M0 0 C8.35010941 1.17286652 8.35010941 1.17286652 11.0625 4.625 C11.371875 5.40875 11.68125 6.1925 12 7 C7.69235185 5.43358249 3.93828536 3.31663844 0 1 C0 0.67 0 0.34 0 0 Z " fill="#ADA5C5" transform="translate(165,379)"/>
<path d="M0 0 C0.33 0 0.66 0 1 0 C2.02396314 2.99362473 2.84623411 5.82924134 3 9 C0.625 12.0625 0.625 12.0625 -2 14 C-1.43393721 9.30976546 -0.81462495 4.65499974 0 0 Z " fill="#B0A5C8" transform="translate(130,284)"/>
<path d="M0 0 C0.99 0.33 1.98 0.66 3 1 C2.34 1 1.68 1 1 1 C0.79375 1.556875 0.5875 2.11375 0.375 2.6875 C-1.55000774 5.92501302 -4.03850902 7.68231141 -7 10 C-6.67 8.68 -6.34 7.36 -6 6 C-5.34 6 -4.68 6 -4 6 C-3.896875 5.38125 -3.79375 4.7625 -3.6875 4.125 C-3 2 -3 2 0 0 Z " fill="#B0A7CA" transform="translate(294,378)"/>
<path d="M0 0 C2.875 0.3125 2.875 0.3125 6 1 C6.66 1.99 7.32 2.98 8 4 C4.37 4.33 0.74 4.66 -3 5 C-2.34 4.67 -1.68 4.34 -1 4 C-0.34786708 1.97536745 -0.34786708 1.97536745 0 0 Z " fill="#8F80AF" transform="translate(207,210)"/>
<path d="M0 0 C1.98 0 3.96 0 6 0 C5.25 4.75 5.25 4.75 3 7 C0 3.375 0 3.375 0 0 Z " fill="#A89AC7" transform="translate(120,358)"/>
<path d="M0 0 C4 6 4 6 4 10 C1.36 9.34 -1.28 8.68 -4 8 C-2.68 7.34 -1.36 6.68 0 6 C0 4.02 0 2.04 0 0 Z " fill="#A69EBF" transform="translate(230,298)"/>
<path d="M0 0 C3.3 0.33 6.6 0.66 10 1 C9.67 2.32 9.34 3.64 9 5 C4.68607774 4.5206753 2.83430453 3.2542015 0 0 Z " fill="#A79CC1" transform="translate(150,394)"/>
<path d="M0 0 C-0.33 0.99 -0.66 1.98 -1 3 C-1.66 3 -2.32 3 -3 3 C-3.33 3.99 -3.66 4.98 -4 6 C-4.99 6.33 -5.98 6.66 -7 7 C-6.67 5.02 -6.34 3.04 -6 1 C-3 0 -3 0 0 0 Z " fill="#9F94BC" transform="translate(272,370)"/>
<path d="M0 0 C0.66 0 1.32 0 2 0 C3.06775224 1.96466413 4.06553465 3.96855359 5 6 C4.67 6.66 4.34 7.32 4 8 C3.34 8 2.68 8 2 8 C1.67 7.01 1.34 6.02 1 5 C0.01 4.34 -0.98 3.68 -2 3 C-1.34 2.01 -0.68 1.02 0 0 Z " fill="#AEA6C5" transform="translate(212,265)"/>
<path d="M0 0 C0.33 1.32 0.66 2.64 1 4 C-1.97 4 -4.94 4 -8 4 C-7.67 3.01 -7.34 2.02 -7 1 C-4.52260646 0.09162237 -2.66420516 0 0 0 Z " fill="#8E81AC" transform="translate(228,211)"/>
<path d="M0 0 C0.66 0 1.32 0 2 0 C1.52797514 4.24822374 -0.96655518 6.19989709 -4 9 C-4 7.68 -4 6.36 -4 5 C-3.34 5 -2.68 5 -2 5 C-1.7834375 4.0409375 -1.7834375 4.0409375 -1.5625 3.0625 C-1 1 -1 1 0 0 Z " fill="#A8A0BF" transform="translate(301,368)"/>
<path d="M0 0 C2.64465038 3.1254959 3.84414715 6.08788267 5 10 C4.01 10 3.02 10 2 10 C0.39644899 6.49223216 -0.22036864 3.85645121 0 0 Z " fill="#A59BC0" transform="translate(245,328)"/>
<path d="M0 0 C0.66 0 1.32 0 2 0 C2 2.64 2 5.28 2 8 C0.68 8 -0.64 8 -2 8 C-1.125 2.25 -1.125 2.25 0 0 Z " fill="#9F93BA" transform="translate(204,280)"/>
<path d="M0 0 C1.32 0.33 2.64 0.66 4 1 C4 3.97 4 6.94 4 10 C1.997499 7.997499 1.06784629 6.593341 0 4 C0 2.68 0 1.36 0 0 Z " fill="#A599BE" transform="translate(299,266)"/>
<path d="M0 0 C1.32 0.66 2.64 1.32 4 2 C4 2.66 4 3.32 4 4 C4.66 4 5.32 4 6 4 C6 4.99 6 5.98 6 7 C3.11562221 5.70700306 1.12780579 4.34058637 -1 2 C-0.67 1.34 -0.34 0.68 0 0 Z " fill="#AA9FC3" transform="translate(159,372)"/>
<path d="M0 0 C0.99 0.495 0.99 0.495 2 1 C2.4140625 3.06640625 2.4140625 3.06640625 2.625 5.5625 C2.69976562 6.38878906 2.77453125 7.21507812 2.8515625 8.06640625 C2.92503906 9.02353516 2.92503906 9.02353516 3 10 C2.01 10 1.02 10 0 10 C0 6.7 0 3.4 0 0 Z " fill="#9C93B5" transform="translate(308,295)"/>
<path d="M0 0 C0.33 0.99 0.66 1.98 1 3 C0.01 4.485 0.01 4.485 -1 6 C-3.97 5.67 -6.94 5.34 -10 5 C-10 4.67 -10 4.34 -10 4 C-9.04287109 3.81824219 -9.04287109 3.81824219 -8.06640625 3.6328125 C-7.24011719 3.46523438 -6.41382813 3.29765625 -5.5625 3.125 C-4.73878906 2.96257812 -3.91507813 2.80015625 -3.06640625 2.6328125 C-2.38449219 2.42398437 -1.70257813 2.21515625 -1 2 C-0.67 1.34 -0.34 0.68 0 0 Z " fill="#B5ADCC" transform="translate(168,351)"/>
<path d="M0 0 C0.33 0 0.66 0 1 0 C1.35233161 5.37305699 1.35233161 5.37305699 1 8 C-1 10 -1 10 -3 11 C-3.66 10.34 -4.32 9.68 -5 9 C-4.0409375 8.443125 -4.0409375 8.443125 -3.0625 7.875 C-0.36141928 5.41947207 -0.31592995 3.55421195 0 0 Z " fill="#B9AECF" transform="translate(275,345)"/>
<path d="M0 0 C0.66 0 1.32 0 2 0 C3.60355101 3.50776784 4.22036864 6.14354879 4 10 C1.16625119 6.79663178 0.4794463 4.21912747 0 0 Z " fill="#ABA0C6" transform="translate(250,293)"/>
<path d="M0 0 C1.32 0.99 2.64 1.98 4 3 C3.34 4.65 2.68 6.3 2 8 C1.34 7.67 0.68 7.34 0 7 C0 4.69 0 2.38 0 0 Z " fill="#8E80B2" transform="translate(307,286)"/>
<path d="M0 0 C0.99 0 1.98 0 3 0 C1.25 3.875 1.25 3.875 -1 5 C-1.65213292 7.02463255 -1.65213292 7.02463255 -2 9 C-2.66 8.67 -3.32 8.34 -4 8 C-2.87548273 5.0280615 -1.77706209 2.66559313 0 0 Z " fill="#ABA1C5" transform="translate(123,254)"/>
<path d="M0 0 C1 3 1 3 0.0625 5.1875 C-0.4634375 6.0846875 -0.4634375 6.0846875 -1 7 C-1.66 7 -2.32 7 -3 7 C-3.33 5.35 -3.66 3.7 -4 2 C-2.68 1.34 -1.36 0.68 0 0 Z " fill="#A399BD" transform="translate(197,250)"/>
<path d="M0 0 C0.66 0 1.32 0 2 0 C2 1.32 2 2.64 2 4 C0 5.75 0 5.75 -2 7 C-2.66 6.34 -3.32 5.68 -4 5 C-2.71937515 3.2925002 -1.38232443 1.62626404 0 0 Z " fill="#AFA6C7" transform="translate(136,236)"/>
<path d="M0 0 C1.65 0 3.3 0 5 0 C5 1.98 5 3.96 5 6 C4.34 6 3.68 6 3 6 C3 5.34 3 4.68 3 4 C2.01 3.67 1.02 3.34 0 3 C0 2.01 0 1.02 0 0 Z " fill="#A99FC5" transform="translate(138,382)"/>
<path d="M0 0 C2.31 0 4.62 0 7 0 C5.8125 1.5 5.8125 1.5 4 3 C1.3125 3.1875 1.3125 3.1875 -1 3 C-0.67 2.01 -0.34 1.02 0 0 Z " fill="#9E93BA" transform="translate(207,345)"/>
<path d="M0 0 C0.33 0 0.66 0 1 0 C0.67 2.64 0.34 5.28 0 8 C-0.99 8.33 -1.98 8.66 -3 9 C-2.01 6.03 -1.02 3.06 0 0 Z " fill="#AEA5C7" transform="translate(118,263)"/>
<path d="M0 0 C1.32 0.66 2.64 1.32 4 2 C2.68 2.99 1.36 3.98 0 5 C-0.66 4.67 -1.32 4.34 -2 4 C-1.34 2.68 -0.68 1.36 0 0 Z " fill="#8E81B0" transform="translate(143,351)"/>
<path d="M0 0 C0.66 0 1.32 0 2 0 C2 0.66 2 1.32 2 2 C2.66 2.33 3.32 2.66 4 3 C4 4.98 4 6.96 4 9 C0 3 0 3 0 0 Z " fill="#A89FC5" transform="translate(255,304)"/>
<path d="M0 0 C1.43088528 2.86177057 0.59991697 4.93375773 0 8 C-1.32 8 -2.64 8 -4 8 C-2.25 2.25 -2.25 2.25 0 0 Z " fill="#B7ACCE" transform="translate(143,258)"/>
</svg>
