<?xml version="1.0" encoding="UTF-8"?>
<svg version="1.1" xmlns="http://www.w3.org/2000/svg" width="500" height="500">
<path d="M0 0 C6.67508772 4.31917441 10.26440181 11.10893654 14.0703125 17.875 C16.41733707 21.96169474 19.05131559 25.84598327 21.6875 29.75 C28.70250034 40.1641929 35.41860254 50.76037836 42.125 61.375 C43.19258117 63.06127843 44.26028539 64.74747897 45.328125 66.43359375 C50.30403349 74.2961924 55.25289016 82.17498571 60.17431641 90.07177734 C66.09179699 99.54782312 72.11616943 108.95673761 78.125 118.375 C80.85615823 115.05156044 83.31308326 111.67474956 85.62890625 108.05078125 C86.28133301 107.03153564 86.93375977 106.01229004 87.60595703 104.9621582 C88.29286621 103.881521 88.97977539 102.80088379 89.6875 101.6875 C90.40995111 100.55490461 91.13244504 99.42233652 91.85498047 98.28979492 C96.33384684 91.25671636 100.72758846 84.17652582 105.04785156 77.04516602 C110.32872346 68.3485854 115.8278052 59.79128905 121.30908203 51.22021484 C123.13778427 48.35496936 124.95876077 45.48495858 126.77734375 42.61328125 C133.4316076 32.11080086 140.17443621 21.68370135 147.125 11.375 C147.805625 10.31796875 148.48625 9.2609375 149.1875 8.171875 C152.93986928 2.75514838 157.53929717 -1.30785943 164.125 -2.625 C171.3809044 -3.64755023 177.18710868 -1.92556701 183.125 2.375 C188.85489348 8.7604877 189.27726548 15.72569406 189.25871277 24.02804565 C189.26097833 24.77890131 189.26324388 25.52975697 189.26557809 26.30336583 C189.27188709 28.80886778 189.27109073 31.31431522 189.27026367 33.81982422 C189.27325708 35.62051462 189.27666003 37.42120439 189.28044128 39.22189331 C189.28926653 44.10622035 189.29161877 48.99052986 189.29225707 53.8748641 C189.29296836 56.92799276 189.29510415 59.98111698 189.29775429 63.03424454 C189.30700248 73.68998751 189.31108979 84.34571799 189.31030273 95.00146484 C189.30970192 104.92733614 189.3202558 114.8531531 189.3360464 124.77901065 C189.34912944 133.30742647 189.35448632 141.83582453 189.35384732 150.3642503 C189.35359258 155.45502008 189.35643072 160.54574155 189.36702538 165.63650131 C189.3767193 170.42504229 189.37677663 175.21348889 189.36950874 180.00203323 C189.36846455 181.75636686 189.37081597 183.51070641 189.3768692 185.26502991 C189.38461552 187.66612581 189.37992704 190.06689786 189.37223816 192.46798706 C189.37738172 193.1565261 189.38252529 193.84506513 189.38782471 194.55446899 C189.34111368 201.18889801 188.49459842 208.00836357 183.79296875 213.0546875 C178.18498417 217.49379473 171.48088472 219.02613878 164.4453125 218.6953125 C158.23898096 217.83854619 154.04227148 215.16277626 150.125 210.375 C146.7938951 204.25941157 146.68322647 198.90275923 146.69262695 192.02368164 C146.67733948 190.33965744 146.67733948 190.33965744 146.66174316 188.62161255 C146.63164889 184.92607611 146.62235235 181.23079906 146.61328125 177.53515625 C146.59643199 174.96682374 146.57828141 172.39849946 146.55888367 169.83018494 C146.51625252 163.77075765 146.4867058 157.71139714 146.46356028 151.65186828 C146.43646134 144.74970244 146.39255289 137.84767503 146.34727156 130.94560826 C146.25455116 116.75548343 146.18281291 102.56530784 146.125 88.375 C145.79225067 88.93438263 145.45950134 89.49376526 145.1166687 90.07009888 C143.57740436 92.65483841 142.03481478 95.23757875 140.4921875 97.8203125 C139.96906982 98.69985596 139.44595215 99.57939941 138.90698242 100.4855957 C135.50260235 106.17881111 131.96297961 111.75324735 128.25 117.25 C127.70045654 118.06637939 127.15091309 118.88275879 126.5847168 119.72387695 C126.14812744 120.36800537 125.71153809 121.01213379 125.26171875 121.67578125 C121.76962739 126.87122362 118.41279558 132.14988734 115.0625 137.4375 C114.47694336 138.36087158 113.89138672 139.28424316 113.28808594 140.2355957 C112.12832698 142.06455819 110.96865761 143.89357749 109.80908203 145.72265625 C107.21866659 149.80242914 104.61522659 153.87359259 102 157.9375 C101.34439087 158.96339233 101.34439087 158.96339233 100.67553711 160.01000977 C92.89865314 172.0662373 92.89865314 172.0662373 85.125 174.375 C78.0520143 175.32866099 71.72502604 175.38111344 65.875 170.95703125 C58.42901367 164.22572664 53.63067993 156.00192773 48.44433594 147.51171875 C46.34943566 144.1189417 44.17616524 140.77851567 42 137.4375 C37.31465826 130.22030117 32.64900987 122.99066184 28 115.75 C27.03296143 114.2496521 27.03296143 114.2496521 26.04638672 112.71899414 C22.39487304 107.02546085 18.84497577 101.28481748 15.37548828 95.47900391 C14.9642421 94.79216019 14.55299591 94.10531647 14.12928772 93.3976593 C13.12720976 91.72382774 12.12601239 90.04946903 11.125 88.375 C11.12353344 88.9654586 11.12206688 89.55591721 11.12055588 90.16426849 C11.08344851 104.55433727 11.0243819 118.94419323 10.94109726 133.3340683 C10.90134616 140.29302845 10.86893384 147.25187617 10.85400391 154.2109375 C10.83957137 160.92842784 10.80441547 167.64551941 10.75669098 174.36286926 C10.74186824 176.92402617 10.73395848 179.48523283 10.73311615 182.0464325 C10.73074759 185.6374516 10.70367404 189.22750667 10.67089844 192.81835938 C10.67844398 194.40224457 10.67844398 194.40224457 10.68614197 196.01812744 C10.59384475 202.56611878 9.57669572 206.77421889 6.125 212.375 C4.125 214.21484375 4.125 214.21484375 2.125 215.3125 C1.135 215.88291016 1.135 215.88291016 0.125 216.46484375 C-6.13286269 219.31266017 -13.6027676 219.356969 -20.125 217.3125 C-24.45695016 215.43590621 -27.58539027 212.49483916 -29.875 208.375 C-31.43770769 203.00244245 -32.16557171 198.12548987 -32.12896729 192.51940918 C-32.13208727 191.77092823 -32.13520725 191.02244727 -32.13842177 190.25128508 C-32.1463418 187.76574841 -32.14010176 185.28045997 -32.13378906 182.79492188 C-32.13650159 181.00378782 -32.14006399 179.21265488 -32.14440918 177.42152405 C-32.15350427 172.57241375 -32.15000081 167.72338885 -32.14365101 162.87427711 C-32.1385761 157.79179281 -32.1432866 152.70931566 -32.14642334 147.62683105 C-32.15005864 139.09284151 -32.14527533 130.55888662 -32.13574219 122.02490234 C-32.12485849 112.1682843 -32.12838437 102.311749 -32.139395 92.45513296 C-32.1484803 83.98187348 -32.14974707 75.50863886 -32.14451766 67.03537607 C-32.1414048 61.97929434 -32.14096982 56.92325146 -32.14759064 51.86717224 C-32.15338154 47.11306841 -32.14933529 42.35907094 -32.13780212 37.60497856 C-32.13516487 35.86354689 -32.13590462 34.12210623 -32.14032745 32.38067818 C-32.14582137 29.99719618 -32.13890255 27.61405154 -32.12896729 25.23059082 C-32.13565945 24.20566505 -32.13565945 24.20566505 -32.14248681 23.1600337 C-32.08215993 15.65943314 -30.61701741 9.33639332 -25.875 3.375 C-18.15837162 -3.74804158 -9.34445274 -4.67222637 0 0 Z " fill="#80A7E5" transform="translate(172.875,158.625)"/>
<path d="M0 0 C6.33835227 5.84836369 11.89689681 12.08998656 17.14355469 18.94433594 C17.91828125 19.90339844 18.69300781 20.86246094 19.49121094 21.85058594 C44.93205158 53.78267118 61.94195809 93.9147124 62.38183594 135.15917969 C62.39162979 135.92372467 62.40142365 136.68826965 62.41151428 137.47598267 C62.85498439 181.13253761 53.74038186 225.81124358 26.14355469 260.94433594 C24.68386126 262.92249971 23.22558207 264.90170766 21.76855469 266.88183594 C18.49720156 271.22277931 15.15186918 275.49134411 11.70605469 279.69433594 C10.47048828 281.20253906 10.47048828 281.20253906 9.20996094 282.74121094 C8.52804687 283.46824219 7.84613281 284.19527344 7.14355469 284.94433594 C6.48355469 284.94433594 5.82355469 284.94433594 5.14355469 284.94433594 C5.14355469 285.60433594 5.14355469 286.26433594 5.14355469 286.94433594 C3.85058594 288.28417969 3.85058594 288.28417969 1.95605469 289.88183594 C1.21742188 290.50574219 0.47878906 291.12964844 -0.28222656 291.77246094 C-1.13171875 292.48917969 -1.98121094 293.20589844 -2.85644531 293.94433594 C-3.778125 294.76417969 -4.69980469 295.58402344 -5.64941406 296.42871094 C-35.13364783 322.47630836 -72.00754558 338.47875187 -110.85644531 343.94433594 C-111.49364502 344.03859863 -112.13084473 344.13286133 -112.78735352 344.22998047 C-120.33830084 345.22420484 -127.94076323 345.18800594 -135.54394531 345.19433594 C-136.27398773 345.19501068 -137.00403015 345.19568542 -137.75619507 345.19638062 C-176.49936826 345.13974551 -214.88609287 334.16164888 -246.85644531 311.94433594 C-247.74372314 311.33887939 -247.74372314 311.33887939 -248.64892578 310.72119141 C-255.71923751 305.88996905 -262.3610635 300.8691923 -268.63378906 295.01464844 C-270.63771265 293.14807637 -272.69397446 291.3881752 -274.79394531 289.63183594 C-310.66122408 258.06863062 -331.55852074 208.79136035 -335.54394531 161.88183594 C-338.44991046 109.51392226 -323.70756586 62.45829169 -291.85644531 20.94433594 C-291.1178125 19.97882813 -290.37917969 19.01332031 -289.61816406 18.01855469 C-280.61840055 6.64956641 -270.39350216 -3.27241326 -258.64453125 -11.75927734 C-256.72471461 -13.15117062 -254.82655391 -14.57018309 -252.92675781 -15.98925781 C-176.21336277 -72.53157975 -69.88721093 -62.50345912 0 0 Z M-238.85644531 -1.05566406 C-239.82453125 -0.40339844 -240.79261719 0.24886719 -241.79003906 0.92089844 C-259.44081546 13.54499079 -275.40986859 30.57363366 -286.85644531 48.94433594 C-287.65311765 50.15886598 -288.45126917 51.37242718 -289.25097656 52.58496094 C-313.80945239 90.67460455 -320.6280944 139.88192025 -311.25439453 183.76269531 C-308.19094447 197.46675807 -303.80011096 210.23431997 -297.85644531 222.94433594 C-297.06560547 224.65556641 -297.06560547 224.65556641 -296.25878906 226.40136719 C-291.34905513 236.60052114 -285.16907528 245.68947019 -278.35644531 254.69433594 C-277.82269287 255.40356201 -277.28894043 256.11278809 -276.73901367 256.84350586 C-273.50832474 261.05044505 -270.09833304 264.84792122 -266.25683594 268.5078125 C-264.85644531 269.94433594 -264.85644531 269.94433594 -263.85644531 271.94433594 C-263.19644531 271.94433594 -262.53644531 271.94433594 -261.85644531 271.94433594 C-261.85644531 272.60433594 -261.85644531 273.26433594 -261.85644531 273.94433594 C-259.39386672 276.49158772 -256.57496193 278.67601953 -253.85644531 280.94433594 C-253.04691406 281.64042969 -252.23738281 282.33652344 -251.40332031 283.05371094 C-215.0697218 313.73058154 -167.73080333 328.15772027 -120.43652344 324.19042969 C-77.89666704 320.13288093 -40.39223342 301.39982514 -9.85644531 271.94433594 C-9.2916748 271.40873047 -8.7269043 270.873125 -8.14501953 270.32128906 C-6.67616989 268.90190288 -5.26151645 267.42688492 -3.85644531 265.94433594 C-3.85644531 265.28433594 -3.85644531 264.62433594 -3.85644531 263.94433594 C-3.19644531 263.94433594 -2.53644531 263.94433594 -1.85644531 263.94433594 C-0.52571854 262.63074097 -0.52571854 262.63074097 0.79589844 260.85839844 C1.31974121 260.18413818 1.84358398 259.50987793 2.38330078 258.81518555 C2.94355957 258.07405518 3.50381836 257.3329248 4.08105469 256.56933594 C4.65936035 255.80564697 5.23766602 255.04195801 5.83349609 254.25512695 C15.42410298 241.38227868 23.36893897 227.93291397 29.14355469 212.94433594 C29.41006836 212.25484863 29.67658203 211.56536133 29.95117188 210.85498047 C46.5014365 167.40304927 46.9520652 118.9024662 28.07763672 76.00878906 C18.4147192 54.65237752 5.92266569 36.40440125 -10.32324219 19.54492188 C-11.54444499 18.27004838 -12.74347185 16.97394225 -13.93457031 15.67089844 C-44.83282726 -17.31507857 -91.21839296 -30.58047107 -134.85644531 -33.05566406 C-171.91496444 -33.05566406 -208.47920838 -22.51170502 -238.85644531 -1.05566406 Z " fill="#81A7E4" transform="translate(389.8564453125,105.0556640625)"/>
<path d="M0 0 C4.97872193 2.52556985 8.63352233 6.45454466 11.125 11.4375 C11.30278623 14.03725932 11.40253022 16.58574807 11.4375 19.1875 C11.46650391 19.89132813 11.49550781 20.59515625 11.52539062 21.3203125 C11.58793269 26.49687106 10.48249005 29.3089408 7.125 33.4375 C0.52177952 39.75362394 -5.00215365 40.86381874 -13.90625 40.6875 C-20.95327804 40.09406606 -25.91932013 37.39317987 -30.875 32.4375 C-34.75060906 25.92870201 -34.87716555 19.83364742 -33.875 12.4375 C-31.8054485 7.06273073 -28.78788663 3.59611188 -23.6875 0.9375 C-16.08891181 -2.29976834 -7.8225429 -3.11305279 0 0 Z " fill="#80A7E5" transform="translate(261.875,141.5625)"/>
<path d="M0 0 C2.0625 0.4375 2.0625 0.4375 4 1 C4.33 2.32 4.66 3.64 5 5 C4.34 4.34 3.68 3.68 3 3 C2.67 40.95 2.34 78.9 2 118 C1.67 118 1.34 118 1 118 C-0.03046905 112.02242568 -0.17688796 106.18168824 -0.22119141 100.12353516 C-0.2326973 99.0512265 -0.24420319 97.97891785 -0.25605774 96.87411499 C-0.2926093 93.34579273 -0.32233171 89.81745245 -0.3515625 86.2890625 C-0.37468557 83.8352331 -0.39807597 81.3814062 -0.42172241 78.92758179 C-0.47008849 73.79500523 -0.51503933 68.66241289 -0.55761719 63.52978516 C-0.61262521 56.93514963 -0.67643147 50.34063316 -0.74279213 43.74610329 C-0.79272074 38.68487522 -0.83790296 33.62361342 -0.88163376 28.56232834 C-0.90326037 26.12931307 -0.92641664 23.69631092 -0.9510994 21.26332474 C-0.98478424 17.87560269 -1.01206864 14.4878896 -1.03759766 11.10009766 C-1.04897263 10.08610901 -1.0603476 9.07212036 -1.07206726 8.02740479 C-1.07766159 7.11058929 -1.08325592 6.1937738 -1.08901978 5.24917603 C-1.09601709 4.44801172 -1.10301441 3.64684742 -1.11022377 2.82140541 C-1 1 -1 1 0 0 Z " fill="#819FD0" transform="translate(181,244)"/>
<path d="M0 0 C0.33 0 0.66 0 1 0 C1.00331015 0.59506757 1.00662029 1.19013514 1.01003075 1.80323505 C1.09121091 16.27494896 1.18328691 30.74656309 1.28752708 45.21812916 C1.33767321 52.21644207 1.38411583 59.21474315 1.421875 66.21313477 C1.45830322 72.96292513 1.50500549 79.71257199 1.55806351 86.46225548 C1.57664187 89.0415085 1.59173699 91.62078897 1.60334396 94.20008278 C1.62014745 97.80385145 1.64916846 101.40732499 1.68115234 105.01098633 C1.68331253 106.08488617 1.68547272 107.15878601 1.68769836 108.26522827 C1.69886185 109.24539413 1.71002533 110.22556 1.7215271 111.23542786 C1.72705786 112.08808637 1.73258862 112.94074488 1.73828697 113.81924152 C1.86854546 116.29205724 1.86854546 116.29205724 4 119 C4 120.32 4 121.64 4 123 C4.66 123 5.32 123 6 123 C6 123.66 6 124.32 6 125 C6.99 125 7.98 125 9 125 C9.33 125.99 9.66 126.98 10 128 C16.27 128.66 22.54 129.32 29 130 C22.95727151 133.02136425 17.59910412 132.80955702 11.1875 130.8125 C5.36154355 127.49970124 1.8258757 123.47854481 0 117 C-0.41181368 113.15116695 -0.37960323 109.33264765 -0.34057617 105.46508789 C-0.34101425 104.32289795 -0.34145233 103.18070801 -0.34190369 102.00390625 C-0.33982021 98.24331334 -0.31650912 94.48317091 -0.29296875 90.72265625 C-0.28737125 88.10949446 -0.28310188 85.49632952 -0.28010559 82.88316345 C-0.27080267 76.71739959 -0.24621289 70.55179639 -0.21605712 64.38610309 C-0.18245826 57.36312251 -0.16601336 50.34013403 -0.15097082 43.31709301 C-0.11966159 28.87797935 -0.06693546 14.43899193 0 0 Z " fill="#7C9DCC" transform="translate(320,245)"/>
<path d="M0 0 C0.33 0 0.66 0 1 0 C0.82705326 8.33288831 -0.52703457 16.1461781 -2.375 24.25 C-2.58406982 25.17184082 -2.79313965 26.09368164 -3.00854492 27.04345703 C-4.36517155 32.81468437 -6.01916652 38.41250608 -8 44 C-8.33 44 -8.66 44 -9 44 C-9.02712066 42.56260487 -9.04645067 41.12506137 -9.0625 39.6875 C-9.07410156 38.88699219 -9.08570313 38.08648437 -9.09765625 37.26171875 C-9 35 -9 35 -8 32 C-7.96125079 30.33378384 -7.9549714 28.66605828 -8 27 C-7.01 27.33 -6.02 27.66 -5 28 C-5.020625 27.195625 -5.04125 26.39125 -5.0625 25.5625 C-5 23 -5 23 -4 22 C-3.45820694 19.06430609 -2.96133561 16.135937 -2.5 13.1875 C-2.24107383 11.55575237 -1.98070483 9.92423291 -1.71875 8.29296875 C-1.60466797 7.5661792 -1.49058594 6.83938965 -1.37304688 6.09057617 C-1.00537101 4.03009943 -0.53182045 2.02371377 0 0 Z " fill="#88A5D4" transform="translate(450,272)"/>
<path d="M0 0 C2.62214806 2.25362995 3.37592139 3.72883095 3.875 7.125 C4.73451443 11.55866192 6.4075739 14.81279323 8.703125 18.66796875 C10.5099075 21.91691197 11.76897974 25.31831794 13.09375 28.78515625 C13.99185065 31.14314083 13.99185065 31.14314083 15.625 33.6875 C17.38978338 36.65554477 18.15091083 39.66895789 19 43 C15.65607776 40.23582898 14.04848979 36.5072604 12.1875 32.6875 C11.83929199 31.98197998 11.49108398 31.27645996 11.13232422 30.54956055 C7.83735883 23.80340946 4.85058321 16.94489223 2 10 C1.6184375 9.1028125 1.236875 8.205625 0.84375 7.28125 C-0.10351149 4.72013559 -0.15480523 2.70909151 0 0 Z " fill="#93AEDB" transform="translate(64,310)"/>
<path d="M0 0 C0.33 0 0.66 0 1 0 C1.042721 1.66611905 1.04063832 3.33382885 1 5 C0.67 5.33 0.34 5.66 0 6 C-0.1467089 7.91855912 -0.22755216 9.8422142 -0.28125 11.765625 C-0.33732422 13.56773437 -0.33732422 13.56773437 -0.39453125 15.40625 C-0.42933594 16.6746875 -0.46414062 17.943125 -0.5 19.25 C-0.76424143 28.5278102 -1.19985305 37.75169953 -2 47 C-2.33 47 -2.66 47 -3 47 C-3.04972917 41.87713 -3.08587445 36.75440298 -3.10986328 31.63134766 C-3.11987218 29.89141388 -3.13348343 28.1514967 -3.15087891 26.41162109 C-3.17535354 23.89937215 -3.1865344 21.38734712 -3.1953125 18.875 C-3.20563507 18.10696045 -3.21595764 17.3389209 -3.22659302 16.54760742 C-3.22777009 10.78025182 -2.62012839 5.24025678 0 0 Z " fill="#C1D1EB" transform="translate(144,166)"/>
<path d="M0 0 C0.33 0 0.66 0 1 0 C1.42105485 6.10529532 1.10167827 9.14274942 -3 14 C-9.77207867 20.47764047 -15.23085752 21.22002947 -24.29296875 21.265625 C-27 21 -27 21 -30 19 C-25.1666528 18.91666643 -20.76307437 19.04738513 -16 20 C-16 19.34 -16 18.68 -16 18 C-13.03 17.01 -10.06 16.02 -7 15 C-7 14.34 -7 13.68 -7 13 C-6.20207031 12.78601563 -5.40414063 12.57203125 -4.58203125 12.3515625 C-1.75510016 11.24418405 -1.75510016 11.24418405 -1.07421875 8.3984375 C-0.94660156 7.40070313 -0.81898438 6.40296875 -0.6875 5.375 C-0.54699219 4.37210938 -0.40648437 3.36921875 -0.26171875 2.3359375 C-0.17535156 1.56507813 -0.08898437 0.79421875 0 0 Z " fill="#85A1D1" transform="translate(272,161)"/>
<path d="M0 0 C3.74986874 1.24995625 4.62163516 2.90091854 7 6 C8.11375 7.0828125 8.11375 7.0828125 9.25 8.1875 C11 10 11 10 11 12 C11.99 12.33 12.98 12.66 14 13 C16 15 16 15 18 17 C18.721875 17.33 19.44375 17.66 20.1875 18 C22 19 22 19 22.75 21.125 C22.87375 22.053125 22.87375 22.053125 23 23 C23.99 23 24.98 23 26 23 C26 23.99 26 24.98 26 26 C23.08825141 24.67289545 20.91075556 23.20313507 18.57421875 21.0234375 C17.63074585 20.14606934 17.63074585 20.14606934 16.66821289 19.25097656 C16.01457764 18.6319043 15.36094238 18.01283203 14.6875 17.375 C14.01904053 16.74561523 13.35058105 16.11623047 12.66186523 15.46777344 C2.8970726 6.19342805 2.8970726 6.19342805 0 2 C0 1.34 0 0.68 0 0 Z " fill="#8EA8D5" transform="translate(101,378)"/>
<path d="M0 0 C0.66 0 1.32 0 2 0 C2.33 1.98 2.66 3.96 3 6 C3.66 6 4.32 6 5 6 C5 6.66 5 7.32 5 8 C5.99 8 6.98 8 8 8 C8.33 8.99 8.66 9.98 9 11 C15.27 11.66 21.54 12.32 28 13 C21.95727151 16.02136425 16.59910412 15.80955702 10.1875 13.8125 C5.68486071 11.2521757 2.85642618 8.28463927 0 4 C0 2.68 0 1.36 0 0 Z " fill="#88A2D2" transform="translate(321,362)"/>
<path d="M0 0 C1 2 1 2 0.0625 5.125 C-0.288125 6.07375 -0.63875 7.0225 -1 8 C-0.34 8.33 0.32 8.66 1 9 C0.649375 9.515625 0.29875 10.03125 -0.0625 10.5625 C-1.75326036 14.95847694 -0.23753433 19.58023454 1 24 C1.66 24 2.32 24 3 24 C3.33 24.66 3.66 25.32 4 26 C5.97522846 27.04808041 7.97481509 28.0520411 10 29 C10 29.66 10 30.32 10 31 C4.86937777 29.24092952 1.2137422 27.01609581 -1.625 22.30078125 C-3.16619277 18.60104293 -3.40107169 15.93081459 -3.375 11.9375 C-3.38273438 10.75027344 -3.39046875 9.56304687 -3.3984375 8.33984375 C-2.97520176 4.79213238 -2.05737601 2.87923785 0 0 Z " fill="#83A0D2" transform="translate(231,149)"/>
<path d="M0 0 C-5.60513782 5.78029838 -11.65559098 11.04343045 -18 16 C-15.56521739 8.34782609 -15.56521739 8.34782609 -14 6 C-12.67696283 5.6278958 -11.34262065 5.29369827 -10 5 C-9.34 4.01 -8.68 3.02 -8 2 C-4.77208445 -0.1519437 -3.71599191 -0.20086443 0 0 Z " fill="#83A2D6" transform="translate(147,107)"/>
<path d="M0 0 C3.19348002 3.70286948 4.80959932 7.89803731 6.625 12.375 C6.93695313 13.1175 7.24890625 13.86 7.5703125 14.625 C9.25917107 18.74523255 10.47622495 22.54083403 11 27 C8.03472242 24.5546615 7.44417786 22.55397653 6.8125 18.8125 C6.65394531 17.91144531 6.49539063 17.01039063 6.33203125 16.08203125 C6.22246094 15.39496094 6.11289062 14.70789063 6 14 C5.01 13.67 4.02 13.34 3 13 C3 11.68 3 10.36 3 9 C2.34 8.67 1.68 8.34 1 8 C0.40644386 5.35139573 0.25790731 2.70802678 0 0 Z " fill="#90ABDA" transform="translate(431,162)"/>
<path d="M0 0 C1.32 0.33 2.64 0.66 4 1 C4.33 2.32 4.66 3.64 5 5 C5.969375 5.12375 6.93875 5.2475 7.9375 5.375 C9.4534375 5.684375 9.4534375 5.684375 11 6 C11.33 6.66 11.66 7.32 12 8 C5.89453125 6.47363281 -0.2109375 4.94726562 -6.31640625 3.42089844 C-7.41275391 3.14681152 -7.41275391 3.14681152 -8.53125 2.8671875 C-9.6759375 2.58101563 -10.820625 2.29484375 -12 2 C-12 1.67 -12 1.34 -12 1 C-10.54119891 1.14107747 -9.08296449 1.28802415 -7.625 1.4375 C-6.40683594 1.55931641 -6.40683594 1.55931641 -5.1640625 1.68359375 C-3 2 -3 2 -1 3 C-0.67 2.01 -0.34 1.02 0 0 Z " fill="#8BA9D8" transform="translate(299,74)"/>
<path d="M0 0 C0.33 0 0.66 0 1 0 C0.37059416 6.41993958 0.37059416 6.41993958 -1.4375 9.25 C-3.86513972 13.52264591 -4.28283134 18.18231406 -5 23 C-6.32 23.33 -7.64 23.66 -9 24 C-6.80148049 15.63019764 -3.50929804 7.88172441 0 0 Z " fill="#8EA9DA" transform="translate(74,163)"/>
<path d="M0 0 C0.66 1.32 1.32 2.64 2 4 C1.30583984 4.79857422 1.30583984 4.79857422 0.59765625 5.61328125 C-1.29934912 8.44719391 -1.85365845 10.86202049 -2.5625 14.1875 C-2.98020983 16.13917247 -3.44594725 18.08257138 -4 20 C-4.66 20.33 -5.32 20.66 -6 21 C-5.37968409 14.42465139 -3.85102717 8.33307408 -2 2 C-1.34 2 -0.68 2 0 2 C0 1.34 0 0.68 0 0 Z " fill="#8EACDB" transform="translate(65,188)"/>
<path d="M0 0 C1.98 0 3.96 0 6 0 C6.38800781 0.87914063 6.77601563 1.75828125 7.17578125 2.6640625 C9.12991105 6.23756752 11.25970323 8.56127323 14.1875 11.375 C15.08855469 12.24898437 15.98960937 13.12296875 16.91796875 14.0234375 C17.60503906 14.67570312 18.29210937 15.32796875 19 16 C18.67 16.66 18.34 17.32 18 18 C12 12 6 6 0 0 Z " fill="#8EA8D6" transform="translate(366,112)"/>
<path d="M0 0 C0.66 0.66 1.32 1.32 2 2 C1.34 2 0.68 2 0 2 C-0.66 4.97 -1.32 7.94 -2 11 C-2.66 11 -3.32 11 -4 11 C-4.66 12.65 -5.32 14.3 -6 16 C-6.66 14.68 -7.32 13.36 -8 12 C-5.36 8.04 -2.72 4.08 0 0 Z " fill="#88A5D7" transform="translate(309,187)"/>
<path d="M0 0 C0.61385498 4.91083986 0.14163971 7.33402864 -2.8125 11.375 C-4.92458692 14.07638525 -5.66547271 14.8884909 -9 16 C-7.98209345 13.72928539 -7.22557171 12.19215368 -5.3125 10.5625 C-4.879375 10.046875 -4.44625 9.53125 -4 9 C-4.2784375 7.7934375 -4.2784375 7.7934375 -4.5625 6.5625 C-4.706875 5.716875 -4.85125 4.87125 -5 4 C-1.75675676 0 -1.75675676 0 0 0 Z " fill="#83A2D4" transform="translate(361,358)"/>
<path d="M0 0 C2.33223736 3.49835604 3.15245549 6.91404733 4.125 10.9375 C4.30675781 11.65357422 4.48851562 12.36964844 4.67578125 13.10742188 C5.52085109 16.53535554 6 19.44772031 6 23 C5.34 23 4.68 23 4 23 C3.67 19.04 3.34 15.08 3 11 C2.01 10.67 1.02 10.34 0 10 C0 6.7 0 3.4 0 0 Z " fill="#8BA7D2" transform="translate(443,192)"/>
<path d="M0 0 C5.21745066 0.52506828 9.22651111 1.7798559 13.9375 4.0625 C15.65259766 4.88427734 15.65259766 4.88427734 17.40234375 5.72265625 C18.25957031 6.14417969 19.11679687 6.56570312 20 7 C19.67 7.66 19.34 8.32 19 9 C14.53202662 7.60121198 10.36177921 5.86369228 6.125 3.875 C4.97257812 3.33617188 3.82015625 2.79734375 2.6328125 2.2421875 C1.76398438 1.83226563 0.89515625 1.42234375 0 1 C0 0.67 0 0.34 0 0 Z " fill="#95ADD7" transform="translate(324,66)"/>
<path d="M0 0 C1.32 0.33 2.64 0.66 4 1 C-0.62 4.3 -5.24 7.6 -10 11 C-10.66 10.67 -11.32 10.34 -12 10 C-8.50627405 6.09524747 -5.93530344 4.57032382 -1 3 C-0.67 2.01 -0.34 1.02 0 0 Z " fill="#829FD3" transform="translate(372,407)"/>
<path d="M0 0 C1.0326802 2.78823655 1.04509293 3.8677274 0.0625 6.75 C-0.288125 7.4925 -0.63875 8.235 -1 9 C-2.32 9 -3.64 9 -5 9 C-5.268125 9.598125 -5.53625 10.19625 -5.8125 10.8125 C-6.98493467 12.97224808 -8.19369282 14.35790256 -10 16 C-10 11.85038992 -8.22541494 10.55738942 -5.5625 7.4375 C-2.46380426 3.93009899 -2.46380426 3.93009899 0 0 Z " fill="#88A3D4" transform="translate(399,353)"/>
<path d="M0 0 C1.37306615 4.11919845 0.09584203 5.73014647 -1.6875 9.625 C-2.20699219 10.79289062 -2.72648437 11.96078125 -3.26171875 13.1640625 C-5 16 -5 16 -7.20703125 16.8984375 C-7.79871094 16.93195313 -8.39039063 16.96546875 -9 17 C-7.51481201 12.95698825 -5.57122002 9.38853744 -3.375 5.6875 C-2.74335938 4.61886719 -2.11171875 3.55023438 -1.4609375 2.44921875 C-0.97882813 1.64097656 -0.49671875 0.83273437 0 0 Z " fill="#82A0D3" transform="translate(411,334)"/>
<path d="M0 0 C2.4375 0.375 2.4375 0.375 5 1 C5.33 1.66 5.66 2.32 6 3 C-0.3778552 4.17293889 -6.50321562 5.29530838 -13 5 C-13 4.34 -13 3.68 -13 3 C-6.565 2.505 -6.565 2.505 0 2 C0 1.34 0 0.68 0 0 Z " fill="#8BA6D8" transform="translate(285,444)"/>
<path d="M0 0 C4.22072357 3.76850319 7.7565524 8.1394907 8.25 13.9375 C8.12625 14.9584375 8.12625 14.9584375 8 16 C7.67 15.01 7.34 14.02 7 13 C6.34 12.67 5.68 12.34 5 12 C5 11.01 5 10.02 5 9 C4.34 9 3.68 9 3 9 C2.67 7.68 2.34 6.36 2 5 C0.68 4.67 -0.64 4.34 -2 4 C-1.34 3.34 -0.68 2.68 0 2 C0 1.34 0 0.68 0 0 Z " fill="#8AA6DC" transform="translate(421,145)"/>
<path d="M0 0 C-3.00609722 2.00406482 -5.59242695 3.03076258 -9 4.1875 C-10.051875 4.55230469 -11.10375 4.91710937 -12.1875 5.29296875 C-15 6 -15 6 -18 5 C-15 3 -15 3 -11 3 C-10.67 2.34 -10.34 1.68 -10 1 C-6.28098293 -0.96281457 -4.02784093 -1.15081169 0 0 Z " fill="#8FAADC" transform="translate(323,437)"/>
<path d="M0 0 C0.99 0 1.98 0 3 0 C6.49360685 3.60278206 8.35618999 7.32811893 10 12 C9.67 12.99 9.34 13.98 9 15 C7.49726004 12.68923915 5.99770448 10.37652089 4.5 8.0625 C4.07074219 7.40314453 3.64148438 6.74378906 3.19921875 6.06445312 C0 1.11328125 0 1.11328125 0 0 Z " fill="#8AA4D1" transform="translate(216,297)"/>
<path d="M0 0 C1.65 0 3.3 0 5 0 C1.32167983 4.52615993 -2.41086363 8.39424999 -7 12 C-6.8125 10.25 -6.8125 10.25 -6 8 C-4.33333333 6.66666667 -2.66666667 5.33333333 -1 4 C-0.13034494 1.87053397 -0.13034494 1.87053397 0 0 Z " fill="#89A3CE" transform="translate(124,123)"/>
<path d="M0 0 C-6.07841789 2.84964058 -10.37579029 4.72805471 -17 3 C-17 2.67 -17 2.34 -17 2 C-14.73139163 1.4695592 -12.46001511 0.95094566 -10.1875 0.4375 C-8.29064453 0.00244141 -8.29064453 0.00244141 -6.35546875 -0.44140625 C-3 -1 -3 -1 0 0 Z " fill="#8BA2D5" transform="translate(222,55)"/>
<path d="M0 0 C0.99 0.33 1.98 0.66 3 1 C-0.13118145 4.31010611 -3.07019678 6.72485076 -7 9 C-8.75149165 10.58245275 -8.75149165 10.58245275 -10 12 C-8.69041436 6.59795923 -4.56696036 2.91200245 0 0 Z " fill="#89A2D3" transform="translate(331,158)"/>
<path d="M0 0 C4.41309542 3.15221101 7.00793014 6.55463907 10 11 C7.0625 10.25 7.0625 10.25 4 9 C3.125 6.875 3.125 6.875 3 5 C2.34 5 1.68 5 1 5 C0.67 3.35 0.34 1.7 0 0 Z " fill="#8DA7D5" transform="translate(393,109)"/>
<path d="M0 0 C1.32 0 2.64 0 4 0 C4 0.66 4 1.32 4 2 C5.175625 2.185625 5.175625 2.185625 6.375 2.375 C9 3 9 3 11 5 C11.99 4.34 12.98 3.68 14 3 C13.67 4.65 13.34 6.3 13 8 C8.27626146 6.37621488 4.05818166 3.89006982 0 1 C0 0.67 0 0.34 0 0 Z " fill="#88A5D3" transform="translate(343,96)"/>
<path d="M0 0 C3.50778211 4.20933853 7 9.4255442 7 15 C4.34930567 12.52601863 2.28384156 10.42357749 1 7 C1 5.68 1 4.36 1 3 C0.01 2.67 -0.98 2.34 -2 2 C-1.34 2 -0.68 2 0 2 C0 1.34 0 0.68 0 0 Z " fill="#809AD1" transform="translate(92,328)"/>
<path d="M0 0 C0.66 0.66 1.32 1.32 2 2 C-0.475 7.94 -0.475 7.94 -3 14 C-3.66 13.34 -4.32 12.68 -5 12 C-4.75 9.4375 -4.75 9.4375 -4 7 C-3.34 6.67 -2.68 6.34 -2 6 C-1.27306096 4.02111039 -0.60183749 2.02045442 0 0 Z " fill="#7B9ED2" transform="translate(90,173)"/>
<path d="M0 0 C1.32 0 2.64 0 4 0 C2.66654496 3.59007126 1.1056769 6.79570907 -1 10 C-1.33 10 -1.66 10 -2 10 C-2.17942163 6.05272412 -2.09350689 3.4019487 0 0 Z " fill="#8AA6D7" transform="translate(100,152)"/>
<path d="M0 0 C0.33 0.99 0.66 1.98 1 3 C0.0409375 3.1546875 0.0409375 3.1546875 -0.9375 3.3125 C-1.618125 3.539375 -2.29875 3.76625 -3 4 C-3.33 4.99 -3.66 5.98 -4 7 C-4.99 7.66 -5.98 8.32 -7 9 C-7.99 8.67 -8.98 8.34 -10 8 C-6.7 5.36 -3.4 2.72 0 0 Z " fill="#8CA7D5" transform="translate(127,97)"/>
<path d="M0 0 C2.375 0.25 2.375 0.25 5 1 C5.6837045 2.32467746 6.34964186 3.65863633 7 5 C9.53770003 6.28254644 9.53770003 6.28254644 12 7 C11.01 7.495 11.01 7.495 10 8 C7.6171875 6.85546875 7.6171875 6.85546875 4.875 5.1875 C3.96492187 4.64480469 3.05484375 4.10210937 2.1171875 3.54296875 C1.41851562 3.03378906 0.71984375 2.52460938 0 2 C0 1.34 0 0.68 0 0 Z " fill="#8AA7D7" transform="translate(146,417)"/>
<path d="M0 0 C0 0.99 0 1.98 0 3 C-6.96428571 6.34821429 -6.96428571 6.34821429 -11 5 C-9.54462432 4.16151196 -8.08559627 3.32936066 -6.625 2.5 C-5.81289062 2.0359375 -5.00078125 1.571875 -4.1640625 1.09375 C-2 0 -2 0 0 0 Z " fill="#8BABD8" transform="translate(167,72)"/>
<path d="M0 0 C6.0018137 -0.21824777 11.19233704 0.4943096 17 2 C17 2.33 17 2.66 17 3 C16.071875 2.979375 15.14375 2.95875 14.1875 2.9375 C10.97713989 2.84230396 10.97713989 2.84230396 8 4 C7.34 3.34 6.68 2.68 6 2 C4.01178687 1.60235737 2.01055661 1.26224651 0 1 C0 0.67 0 0.34 0 0 Z " fill="#85A4D4" transform="translate(279,54)"/>
<path d="M0 0 C2.1875 0.3125 2.1875 0.3125 4 1 C2.576875 1.928125 2.576875 1.928125 1.125 2.875 C-1.94445109 4.81970969 -1.94445109 4.81970969 -4 7 C-6.125 7.625 -6.125 7.625 -8 8 C-6.33333333 6.33333333 -4.66666667 4.66666667 -3 3 C-2.484375 2.38125 -1.96875 1.7625 -1.4375 1.125 C-0.963125 0.75375 -0.48875 0.3825 0 0 Z " fill="#88A3D2" transform="translate(369,386)"/>
<path d="M0 0 C-2.21368294 2.21368294 -3.93016625 3.86552921 -7.11328125 4.265625 C-9.07746787 4.25166986 -11.0402625 4.13286356 -13 4 C-10.56272708 2.37515139 -8.62713877 1.34310925 -5.9375 0.3125 C-5.24527344 0.04050781 -4.55304688 -0.23148437 -3.83984375 -0.51171875 C-2 -1 -2 -1 0 0 Z " fill="#859ED2" transform="translate(325,416)"/>
<path d="M0 0 C0.33 0 0.66 0 1 0 C1.06058594 0.67546875 1.12117187 1.3509375 1.18359375 2.046875 C1.26738281 2.93890625 1.35117188 3.8309375 1.4375 4.75 C1.55931641 6.07257813 1.55931641 6.07257813 1.68359375 7.421875 C1.96238465 9.69350452 2.38790577 11.79851823 3 14 C2.01 14.495 2.01 14.495 1 15 C-0.66251802 9.42567486 -1.18609365 5.6932495 0 0 Z " fill="#809BC9" transform="translate(142,352)"/>
<path d="M0 0 C1.98 0 3.96 0 6 0 C6 0.66 6 1.32 6 2 C9.63 2 13.26 2 17 2 C17 2.33 17 2.66 17 3 C14.91731407 3.08126087 12.83371342 3.13930839 10.75 3.1875 C9.00976562 3.23970703 9.00976562 3.23970703 7.234375 3.29296875 C3.77731593 2.97982934 2.48434437 2.34290892 0 0 Z " fill="#8DA3D0" transform="translate(241,330)"/>
<path d="M0 0 C0.6875 1.6875 0.6875 1.6875 1 4 C-0.67292823 7.69805188 -2.18712958 9.55373881 -6 11 C-4.54955729 6.89041233 -2.48889248 3.56741255 0 0 Z " fill="#8CA5D7" transform="translate(296,207)"/>
<path d="M0 0 C0.66 0.33 1.32 0.66 2 1 C0.35 4.3 -1.3 7.6 -3 11 C-3.66 11 -4.32 11 -5 11 C-3.77472971 6.94718288 -2.30119506 3.55639236 0 0 Z " fill="#8AA6D3" transform="translate(83,147)"/>
<path d="M0 0 C4.54805635 -0.17835515 7.8794254 0.00214565 12 2 C12 2.33 12 2.66 12 3 C10.18674449 2.88648483 8.37436643 2.75887039 6.5625 2.625 C5.04849609 2.52058594 5.04849609 2.52058594 3.50390625 2.4140625 C2.67761719 2.27742188 1.85132813 2.14078125 1 2 C0.67 1.34 0.34 0.68 0 0 Z " fill="#8CA7DD" transform="translate(209,444)"/>
<path d="M0 0 C3.3 0.99 6.6 1.98 10 3 C10 3.33 10 3.66 10 4 C3.375 4.125 3.375 4.125 0 3 C0 2.01 0 1.02 0 0 Z " fill="#829BC7" transform="translate(187,417)"/>
<path d="M0 0 C0 0.66 0 1.32 0 2 C-1.75 3.5078125 -1.75 3.5078125 -4 5.125 C-4.7425 5.66382813 -5.485 6.20265625 -6.25 6.7578125 C-6.8275 7.16773438 -7.405 7.57765625 -8 8 C-8.33 7.01 -8.66 6.02 -9 5 C-7.87926138 4.16094435 -6.75325453 3.32892169 -5.625 2.5 C-4.99851562 2.0359375 -4.37203125 1.571875 -3.7265625 1.09375 C-2 0 -2 0 0 0 Z " fill="#88ABD6" transform="translate(357,397)"/>
<path d="M0 0 C2 0 2 0 3.4375 1.1875 C6.14803534 4.331721 8 6.77976043 8 11 C4.32966073 7.72291137 2.30718811 4.28477792 0 0 Z " fill="#7F9FD0" transform="translate(88,361)"/>
<path d="M0 0 C0.33 0.66 0.66 1.32 1 2 C-0.30406884 4.01920337 -1.63823419 6.01924973 -3 8 C-3.33 8 -3.66 8 -4 8 C-4 6.02 -4 4.04 -4 2 C-2.68 1.34 -1.36 0.68 0 0 Z " fill="#82A5D7" transform="translate(294,283)"/>
<path d="M0 0 C0.99 0.33 1.98 0.66 3 1 C2.05016642 2.50539661 1.08988109 4.00420347 0.125 5.5 C-0.40867187 6.3353125 -0.94234375 7.170625 -1.4921875 8.03125 C-1.98976563 8.6809375 -2.48734375 9.330625 -3 10 C-3.66 10 -4.32 10 -5 10 C-3.66511872 6.40608886 -2.03977277 3.24509304 0 0 Z " fill="#849ECD" transform="translate(277,237)"/>
<path d="M0 0 C0.66 0.33 1.32 0.66 2 1 C1.67 3.97 1.34 6.94 1 10 C0.67 8.68 0.34 7.36 0 6 C-1.32 5.67 -2.64 5.34 -4 5 C-3.525625 4.54625 -3.05125 4.0925 -2.5625 3.625 C-0.90972192 2.06741796 -0.90972192 2.06741796 0 0 Z " fill="#84A6D7" transform="translate(76,216)"/>
<path d="M0 0 C2.72426311 2.35277269 3.8141763 4.62496331 5 8 C3.35 8 1.7 8 0 8 C-0.33 6.68 -0.66 5.36 -1 4 C-0.34 4 0.32 4 1 4 C0.67 2.68 0.34 1.36 0 0 Z " fill="#84A4DA" transform="translate(205,206)"/>
<path d="M0 0 C0.66 0.33 1.32 0.66 2 1 C1.3503125 1.5878125 1.3503125 1.5878125 0.6875 2.1875 C-1.13858339 4.01043451 -1.13858339 4.01043451 -2.5 6.625 C-4 9 -4 9 -7 10 C-5.33248852 6.05860922 -2.77289351 3.2107188 0 0 Z " fill="#8BA3D1" transform="translate(103,120)"/>
<path d="M0 0 C3.95820859 0.56545837 6.6659053 1.80902348 10 4 C9.67 4.66 9.34 5.32 9 6 C4.545 4.02 4.545 4.02 0 2 C0 1.34 0 0.68 0 0 Z " fill="#93ACD9" transform="translate(346,76)"/>
<path d="M0 0 C2.75 -0.3125 2.75 -0.3125 6 0 C8.375 2.5 8.375 2.5 10 5 C6.08788267 3.84414715 3.1254959 2.64465038 0 0 Z " fill="#90ADD7" transform="translate(159,426)"/>
<path d="M0 0 C2 3 2 3 2 5 C-1.46153846 8 -1.46153846 8 -4 8 C-2.87548273 5.0280615 -1.77706209 2.66559313 0 0 Z " fill="#96B2E1" transform="translate(314,179)"/>
<path d="M0 0 C1.70884005 1.62339805 3.37446717 3.29319053 5 5 C5 5.66 5 6.32 5 7 C2.03 6.505 2.03 6.505 -1 6 C-0.67 4.02 -0.34 2.04 0 0 Z " fill="#84A1D5" transform="translate(415,136)"/>
<path d="M0 0 C0.33 0.66 0.66 1.32 1 2 C0.0625 4.125 0.0625 4.125 -1 6 C-2.32 5.67 -3.64 5.34 -5 5 C-4 2 -4 2 -1.9375 0.8125 C-1.298125 0.544375 -0.65875 0.27625 0 0 Z " fill="#86A3DB" transform="translate(338,408)"/>
<path d="M0 0 C0.66 0.33 1.32 0.66 2 1 C1.1875 4.4375 1.1875 4.4375 0 8 C-0.99 8.33 -1.98 8.66 -3 9 C-2.01 6.03 -1.02 3.06 0 0 Z " fill="#859FCC" transform="translate(418,318)"/>
<path d="M0 0 C1.5 1.3125 1.5 1.3125 3 3 C3 5 3 7 3 9 C1.35 7.02 -0.3 5.04 -2 3 C-1.34 2.67 -0.68 2.34 0 2 C0 1.34 0 0.68 0 0 Z " fill="#81A0D9" transform="translate(387,128)"/>
<path d="M0 0 C0.928125 0.0825 1.85625 0.165 2.8125 0.25 C2.8125 0.91 2.8125 1.57 2.8125 2.25 C-0.1575 2.91 -3.1275 3.57 -6.1875 4.25 C-4.36434338 1.00883268 -3.82500054 0.30000004 0 0 Z " fill="#88A5D5" transform="translate(207.1875,75.75)"/>
<path d="M0 0 C-2.49505962 2.49505962 -3.67328888 2.35948376 -7.125 2.625 C-8.03507813 2.69976562 -8.94515625 2.77453125 -9.8828125 2.8515625 C-10.93082031 2.92503906 -10.93082031 2.92503906 -12 3 C-7.97869817 0.31913211 -4.73968522 -1.57989507 0 0 Z " fill="#8DA6D3" transform="translate(204,59)"/>
<path d="M0 0 C0.99 0 1.98 0 3 0 C4.42944945 2.35438733 5.08661261 3.48032433 4.625 6.25 C4.41875 6.8275 4.2125 7.405 4 8 C0 2.25 0 2.25 0 0 Z " fill="#8AA4D5" transform="translate(207,282)"/>
<path d="M0 0 C-1.98 1.32 -3.96 2.64 -6 4 C-6.99 3.34 -7.98 2.68 -9 2 C-3.375 -1.125 -3.375 -1.125 0 0 Z " fill="#849ECF" transform="translate(245,142)"/>
<path d="M0 0 C1.4835001 0.42257276 2.96176424 0.86356322 4.4375 1.3125 C5.67306641 1.67794922 5.67306641 1.67794922 6.93359375 2.05078125 C7.61550781 2.36402344 8.29742187 2.67726563 9 3 C9.33 3.99 9.66 4.98 10 6 C6.40992874 4.66654496 3.20429093 3.1056769 0 1 C0 0.67 0 0.34 0 0 Z " fill="#8AA0CD" transform="translate(333,90)"/>
<path d="M0 0 C6.75 0.75 6.75 0.75 9 3 C6 4 6 4 2.8125 2.5625 C1.884375 2.046875 0.95625 1.53125 0 1 C0 0.67 0 0.34 0 0 Z " fill="#9FBBE5" transform="translate(335,71)"/>
<path d="M0 0 C0.89203125 0.19464844 1.7840625 0.38929688 2.703125 0.58984375 C3.37859375 0.74582031 4.0540625 0.90179688 4.75 1.0625 C4.75 1.3925 4.75 1.7225 4.75 2.0625 C3.16705218 2.11687607 1.58355744 2.15546271 0 2.1875 C-0.88171875 2.21070313 -1.7634375 2.23390625 -2.671875 2.2578125 C-5.3635858 2.05389502 -6.94904974 1.42801721 -9.25 0.0625 C-5.84598052 -1.07482426 -3.47543336 -0.77739957 0 0 Z " fill="#8DA6D0" transform="translate(162.25,374.9375)"/>
<path d="M0 0 C0.66 0.66 1.32 1.32 2 2 C0.35 4.64 -1.3 7.28 -3 10 C-4 6 -4 6 -2.0625 2.75 C-1.381875 1.8425 -0.70125 0.935 0 0 Z " fill="#80A0D7" transform="translate(279,305)"/>
<path d="M0 0 C2.72426311 2.35277269 3.8141763 4.62496331 5 8 C3.02 7.01 1.04 6.02 -1 5 C-0.67 3.35 -0.34 1.7 0 0 Z " fill="#819FD2" transform="translate(227,241)"/>
<path d="M0 0 C1.32 0.33 2.64 0.66 4 1 C4 2.65 4 4.3 4 6 C3.01 5.67 2.02 5.34 1 5 C0.67 3.35 0.34 1.7 0 0 Z " fill="#84A3DA" transform="translate(418,181)"/>
</svg>
